# xmcd
#
# Track frame offsets:
#	182
#	13435
#	24925
#	36192
#	46172
#	56990
#	69975
#	81010
#	95622
#	106477
#	118747
#	131757
#	141830
#	152680
#	165750
#	177852
#	185595
#	196640
#	208240
#	217792
#
# Disc length: 3031 seconds
#
# Revision: 3
# Processed by: cddbd v1.5.1PL0 Copyright (c) Steve Scherf et al.
# Submitted via: audiograbber 1.83.01
#
DISCID=130bd514
DTITLE=Various Artist - Diner
DYEAR=1982
DGENRE=Soundtrack
TTITLE0=Jerry Lee Lewis - Whole Lotta Shkin' Goin' On
TTITLE1=Dion And The Belmonts - A Teenager In Love
TTITLE2=The Heartbeats - A Thousand Miles Away
TTITLE3=Eddie Cochran - Somethin' Else
TTITLE4=Dion And The Belmonts - I Wonder Why
TTITLE5=Carl Perkins - Honey Don't
TTITLE6=The Fleetwoods - Mr. Blue
TTITLE7=Lowell Fulson - Reconsider Baby
TTITLE8=Clarence Henry - Ain't Got No Home
TTITLE9=The Del Vikings - Come Go With Me
TTITLE10=Bobby Darin - Beyond The Sea
TTITLE11=A Summer Place - A Summer Place
TTITLE12=Jane Morgan - Fascination
TTITLE13=Dick Haymes - Where Or When
TTITLE14=Tommy Edwards - It's All In The Game
TTITLE15=Fats Domino - Whole Lot Of Loving
TTITLE16=Jimmy Reed - Take Out Some Insurance
TTITLE17=Bobby Darin - Dream Lover
TTITLE18=Elvis Presley - Don't Be Cruel
TTITLE19=Jack Scott - Goodbye Baby
EXTD=Steve Gutenberg, Daniel Stern, Mickey Rourke, Kevin Bacon, Timothy Daly, E
EXTD=llen Barkin\n\nDiner \nMGM
EXTT0=Jerry Lee Lewis
EXTT1=Dion and The Belmonts
EXTT2=The Heartbreaks
EXTT3=Eddie Cochran
EXTT4=Dion and The Belmonts
EXTT5=Carl Perkins
EXTT6=The Fleetwoods
EXTT7=Lowell Fulson
EXTT8=Clarence Henry
EXTT9=The Del Vikings
EXTT10=Bobby Darin
EXTT11=Max Steiner: Warner Bros
EXTT12=Jane Morgan
EXTT13=Dick Haynes
EXTT14=Tommy Edwards
EXTT15=Fats Domino
EXTT16=Jimmy Reed
EXTT17=Bobby Darin
EXTT18=Elvis Presley
EXTT19=Jack Scott
PLAYORDER=
